<mxfile host="app.diagrams.net" agent="Mozilla/5.0 (Windows NT 10.0; Win64; x64) AppleWebKit/537.36 (KHTML, like Gecko) Chrome/126.0.0.0 Safari/537.36" version="26.0.3">
  <diagram name="Page-1" id="GpNWZ2jhenYWpCK9qzDE">
    <mxGraphModel dx="712" dy="1229" grid="0" gridSize="10" guides="1" tooltips="1" connect="1" arrows="1" fold="1" page="0" pageScale="1" pageWidth="850" pageHeight="1100" math="0" shadow="0">
      <root>
        <mxCell id="0" />
        <mxCell id="1" parent="0" />
        <mxCell id="BSTQD-bbKbQBepeTsLoF-14" style="edgeStyle=none;curved=1;rounded=0;orthogonalLoop=1;jettySize=auto;html=1;exitX=0.5;exitY=1;exitDx=0;exitDy=0;entryX=0.5;entryY=0;entryDx=0;entryDy=0;fontSize=12;startSize=8;endSize=8;" edge="1" parent="1" source="BSTQD-bbKbQBepeTsLoF-1" target="BSTQD-bbKbQBepeTsLoF-2">
          <mxGeometry relative="1" as="geometry" />
        </mxCell>
        <mxCell id="BSTQD-bbKbQBepeTsLoF-1" value="Fetch Instruction" style="rounded=1;whiteSpace=wrap;html=1;" vertex="1" parent="1">
          <mxGeometry x="159" y="-35" width="120" height="60" as="geometry" />
        </mxCell>
        <mxCell id="BSTQD-bbKbQBepeTsLoF-15" style="edgeStyle=none;curved=1;rounded=0;orthogonalLoop=1;jettySize=auto;html=1;exitX=0.5;exitY=1;exitDx=0;exitDy=0;entryX=0.5;entryY=0;entryDx=0;entryDy=0;fontSize=12;startSize=8;endSize=8;" edge="1" parent="1" source="BSTQD-bbKbQBepeTsLoF-2" target="BSTQD-bbKbQBepeTsLoF-3">
          <mxGeometry relative="1" as="geometry" />
        </mxCell>
        <mxCell id="BSTQD-bbKbQBepeTsLoF-2" value="Decode" style="rounded=1;whiteSpace=wrap;html=1;" vertex="1" parent="1">
          <mxGeometry x="159" y="54" width="120" height="60" as="geometry" />
        </mxCell>
        <mxCell id="BSTQD-bbKbQBepeTsLoF-16" style="edgeStyle=none;curved=1;rounded=0;orthogonalLoop=1;jettySize=auto;html=1;exitX=0.5;exitY=1;exitDx=0;exitDy=0;entryX=0.5;entryY=0;entryDx=0;entryDy=0;fontSize=12;startSize=8;endSize=8;" edge="1" parent="1" source="BSTQD-bbKbQBepeTsLoF-3" target="BSTQD-bbKbQBepeTsLoF-4">
          <mxGeometry relative="1" as="geometry" />
        </mxCell>
        <mxCell id="BSTQD-bbKbQBepeTsLoF-3" value="Execute" style="rounded=1;whiteSpace=wrap;html=1;" vertex="1" parent="1">
          <mxGeometry x="159" y="151" width="120" height="60" as="geometry" />
        </mxCell>
        <mxCell id="BSTQD-bbKbQBepeTsLoF-17" style="edgeStyle=none;curved=1;rounded=0;orthogonalLoop=1;jettySize=auto;html=1;exitX=0.5;exitY=1;exitDx=0;exitDy=0;entryX=0.5;entryY=0;entryDx=0;entryDy=0;fontSize=12;startSize=8;endSize=8;" edge="1" parent="1" source="BSTQD-bbKbQBepeTsLoF-4" target="BSTQD-bbKbQBepeTsLoF-5">
          <mxGeometry relative="1" as="geometry" />
        </mxCell>
        <mxCell id="BSTQD-bbKbQBepeTsLoF-4" value="Advance to Next" style="rounded=1;whiteSpace=wrap;html=1;" vertex="1" parent="1">
          <mxGeometry x="159" y="243" width="120" height="60" as="geometry" />
        </mxCell>
        <mxCell id="BSTQD-bbKbQBepeTsLoF-10" style="edgeStyle=none;curved=1;rounded=0;orthogonalLoop=1;jettySize=auto;html=1;entryX=0;entryY=0.5;entryDx=0;entryDy=0;fontSize=12;startSize=8;endSize=8;" edge="1" parent="1" source="BSTQD-bbKbQBepeTsLoF-5" target="BSTQD-bbKbQBepeTsLoF-6">
          <mxGeometry relative="1" as="geometry">
            <Array as="points">
              <mxPoint x="341" y="295" />
              <mxPoint x="295" y="152" />
            </Array>
          </mxGeometry>
        </mxCell>
        <mxCell id="BSTQD-bbKbQBepeTsLoF-11" value="YES" style="edgeLabel;html=1;align=center;verticalAlign=middle;resizable=0;points=[];fontSize=12;" vertex="1" connectable="0" parent="BSTQD-bbKbQBepeTsLoF-10">
          <mxGeometry x="-0.2137" y="16" relative="1" as="geometry">
            <mxPoint as="offset" />
          </mxGeometry>
        </mxCell>
        <mxCell id="BSTQD-bbKbQBepeTsLoF-12" style="edgeStyle=none;curved=1;rounded=0;orthogonalLoop=1;jettySize=auto;html=1;entryX=0;entryY=0.5;entryDx=0;entryDy=0;fontSize=12;startSize=8;endSize=8;" edge="1" parent="1" source="BSTQD-bbKbQBepeTsLoF-5" target="BSTQD-bbKbQBepeTsLoF-1">
          <mxGeometry relative="1" as="geometry">
            <Array as="points">
              <mxPoint x="129" y="296" />
              <mxPoint x="-9" y="229" />
              <mxPoint x="122" y="139" />
            </Array>
          </mxGeometry>
        </mxCell>
        <mxCell id="BSTQD-bbKbQBepeTsLoF-13" value="NO" style="edgeLabel;html=1;align=center;verticalAlign=middle;resizable=0;points=[];fontSize=12;" vertex="1" connectable="0" parent="BSTQD-bbKbQBepeTsLoF-12">
          <mxGeometry x="-0.5399" y="-2" relative="1" as="geometry">
            <mxPoint as="offset" />
          </mxGeometry>
        </mxCell>
        <mxCell id="BSTQD-bbKbQBepeTsLoF-5" value="Interrupt?" style="rhombus;whiteSpace=wrap;html=1;" vertex="1" parent="1">
          <mxGeometry x="157" y="335" width="122" height="80" as="geometry" />
        </mxCell>
        <mxCell id="BSTQD-bbKbQBepeTsLoF-19" style="edgeStyle=none;curved=1;rounded=0;orthogonalLoop=1;jettySize=auto;html=1;exitX=0.5;exitY=1;exitDx=0;exitDy=0;entryX=0.5;entryY=0;entryDx=0;entryDy=0;fontSize=12;startSize=8;endSize=8;" edge="1" parent="1" source="BSTQD-bbKbQBepeTsLoF-6" target="BSTQD-bbKbQBepeTsLoF-7">
          <mxGeometry relative="1" as="geometry" />
        </mxCell>
        <mxCell id="BSTQD-bbKbQBepeTsLoF-6" value="Save Context" style="rounded=1;whiteSpace=wrap;html=1;" vertex="1" parent="1">
          <mxGeometry x="348" y="54" width="120" height="60" as="geometry" />
        </mxCell>
        <mxCell id="BSTQD-bbKbQBepeTsLoF-20" style="edgeStyle=none;curved=1;rounded=0;orthogonalLoop=1;jettySize=auto;html=1;exitX=0.5;exitY=1;exitDx=0;exitDy=0;entryX=0.5;entryY=0;entryDx=0;entryDy=0;fontSize=12;startSize=8;endSize=8;" edge="1" parent="1" source="BSTQD-bbKbQBepeTsLoF-7" target="BSTQD-bbKbQBepeTsLoF-8">
          <mxGeometry relative="1" as="geometry" />
        </mxCell>
        <mxCell id="BSTQD-bbKbQBepeTsLoF-7" value="Get ID" style="rounded=1;whiteSpace=wrap;html=1;" vertex="1" parent="1">
          <mxGeometry x="348" y="151" width="120" height="60" as="geometry" />
        </mxCell>
        <mxCell id="BSTQD-bbKbQBepeTsLoF-21" style="edgeStyle=none;curved=1;rounded=0;orthogonalLoop=1;jettySize=auto;html=1;exitX=0.5;exitY=1;exitDx=0;exitDy=0;entryX=0.5;entryY=0;entryDx=0;entryDy=0;fontSize=12;startSize=8;endSize=8;" edge="1" parent="1" source="BSTQD-bbKbQBepeTsLoF-8" target="BSTQD-bbKbQBepeTsLoF-9">
          <mxGeometry relative="1" as="geometry" />
        </mxCell>
        <mxCell id="BSTQD-bbKbQBepeTsLoF-8" value="Lookup ISR" style="rounded=1;whiteSpace=wrap;html=1;" vertex="1" parent="1">
          <mxGeometry x="348" y="248" width="120" height="60" as="geometry" />
        </mxCell>
        <mxCell id="BSTQD-bbKbQBepeTsLoF-18" style="edgeStyle=none;curved=1;rounded=0;orthogonalLoop=1;jettySize=auto;html=1;exitX=0;exitY=1;exitDx=0;exitDy=0;entryX=0;entryY=0.5;entryDx=0;entryDy=0;fontSize=12;startSize=8;endSize=8;" edge="1" parent="1" source="BSTQD-bbKbQBepeTsLoF-9" target="BSTQD-bbKbQBepeTsLoF-1">
          <mxGeometry relative="1" as="geometry">
            <Array as="points">
              <mxPoint x="245" y="445" />
              <mxPoint x="144" y="432" />
              <mxPoint x="-24" y="367" />
              <mxPoint x="81" y="-24" />
            </Array>
          </mxGeometry>
        </mxCell>
        <mxCell id="BSTQD-bbKbQBepeTsLoF-9" value="Execute ISR" style="rounded=1;whiteSpace=wrap;html=1;" vertex="1" parent="1">
          <mxGeometry x="348" y="345" width="120" height="60" as="geometry" />
        </mxCell>
      </root>
    </mxGraphModel>
  </diagram>
</mxfile>
